<mxfile host="app.diagrams.net" agent="Mozilla/5.0 (Windows NT 10.0; Win64; x64) AppleWebKit/537.36 (KHTML, like Gecko) Chrome/134.0.0.0 Safari/537.36" version="26.1.3" pages="2">
  <diagram name="PÃ¡gina-1" id="e_0wsC6TIL103NjYNLuy">
    <mxGraphModel grid="1" page="1" gridSize="10" guides="1" tooltips="1" connect="1" arrows="1" fold="1" pageScale="1" pageWidth="827" pageHeight="1169" math="0" shadow="0">
      <root>
        <mxCell id="0" />
        <mxCell id="1" parent="0" />
        <mxCell id="Tgz7Qvu2k7bWYLfT2SAW-34" style="edgeStyle=orthogonalEdgeStyle;rounded=0;orthogonalLoop=1;jettySize=auto;html=1;entryX=0.5;entryY=0;entryDx=0;entryDy=0;endArrow=none;startFill=1;startArrow=classic;" edge="1" parent="1" source="kP8dAD_jrm5b0dCdeW7q-1" target="Tgz7Qvu2k7bWYLfT2SAW-30">
          <mxGeometry relative="1" as="geometry" />
        </mxCell>
        <mxCell id="Tgz7Qvu2k7bWYLfT2SAW-71" style="rounded=0;orthogonalLoop=1;jettySize=auto;html=1;exitX=0;exitY=0;exitDx=0;exitDy=0;endArrow=oval;endFill=1;" edge="1" parent="1" source="kP8dAD_jrm5b0dCdeW7q-1" target="Tgz7Qvu2k7bWYLfT2SAW-65">
          <mxGeometry relative="1" as="geometry" />
        </mxCell>
        <mxCell id="kP8dAD_jrm5b0dCdeW7q-1" value="INSTITUTO" style="rounded=0;whiteSpace=wrap;html=1;" vertex="1" parent="1">
          <mxGeometry x="24" y="10" width="120" height="60" as="geometry" />
        </mxCell>
        <mxCell id="i2WU7JlJFQg8zrvrk9Qy-19" style="rounded=0;orthogonalLoop=1;jettySize=auto;html=1;exitX=1;exitY=0;exitDx=0;exitDy=0;endArrow=oval;endFill=1;" edge="1" parent="1" source="kP8dAD_jrm5b0dCdeW7q-2" target="i2WU7JlJFQg8zrvrk9Qy-14">
          <mxGeometry relative="1" as="geometry" />
        </mxCell>
        <mxCell id="i2WU7JlJFQg8zrvrk9Qy-20" style="rounded=0;orthogonalLoop=1;jettySize=auto;html=1;exitX=1;exitY=0.5;exitDx=0;exitDy=0;endArrow=oval;endFill=0;" edge="1" parent="1" source="kP8dAD_jrm5b0dCdeW7q-2" target="i2WU7JlJFQg8zrvrk9Qy-16">
          <mxGeometry relative="1" as="geometry" />
        </mxCell>
        <mxCell id="i2WU7JlJFQg8zrvrk9Qy-21" style="rounded=0;orthogonalLoop=1;jettySize=auto;html=1;exitX=1;exitY=1;exitDx=0;exitDy=0;endArrow=oval;endFill=0;" edge="1" parent="1" source="kP8dAD_jrm5b0dCdeW7q-2" target="i2WU7JlJFQg8zrvrk9Qy-18">
          <mxGeometry relative="1" as="geometry" />
        </mxCell>
        <mxCell id="jyFi_7OY-xpQh8csej5u-14" style="edgeStyle=orthogonalEdgeStyle;rounded=0;orthogonalLoop=1;jettySize=auto;html=1;" edge="1" parent="1" source="jyFi_7OY-xpQh8csej5u-16" target="kP8dAD_jrm5b0dCdeW7q-4">
          <mxGeometry relative="1" as="geometry" />
        </mxCell>
        <mxCell id="kP8dAD_jrm5b0dCdeW7q-2" value="ACTIVIDAD FORMATIVA" style="rounded=0;whiteSpace=wrap;html=1;" vertex="1" parent="1">
          <mxGeometry x="509" y="1070" width="120" height="60" as="geometry" />
        </mxCell>
        <mxCell id="i2WU7JlJFQg8zrvrk9Qy-66" style="rounded=0;orthogonalLoop=1;jettySize=auto;html=1;exitX=0;exitY=0.5;exitDx=0;exitDy=0;endArrow=oval;endFill=1;" edge="1" parent="1" source="kP8dAD_jrm5b0dCdeW7q-3" target="i2WU7JlJFQg8zrvrk9Qy-50">
          <mxGeometry relative="1" as="geometry" />
        </mxCell>
        <mxCell id="i2WU7JlJFQg8zrvrk9Qy-67" style="rounded=0;orthogonalLoop=1;jettySize=auto;html=1;exitX=0;exitY=1;exitDx=0;exitDy=0;endArrow=oval;endFill=1;" edge="1" parent="1" source="kP8dAD_jrm5b0dCdeW7q-3" target="i2WU7JlJFQg8zrvrk9Qy-46">
          <mxGeometry relative="1" as="geometry" />
        </mxCell>
        <mxCell id="kP8dAD_jrm5b0dCdeW7q-3" value="CALENDARIO" style="rounded=0;whiteSpace=wrap;html=1;" vertex="1" parent="1">
          <mxGeometry x="-210" y="1348" width="120" height="60" as="geometry" />
        </mxCell>
        <mxCell id="kP8dAD_jrm5b0dCdeW7q-4" value="EVALUACION" style="rounded=0;whiteSpace=wrap;html=1;" vertex="1" parent="1">
          <mxGeometry x="100" y="1180" width="120" height="60" as="geometry" />
        </mxCell>
        <mxCell id="Tgz7Qvu2k7bWYLfT2SAW-111" style="rounded=0;orthogonalLoop=1;jettySize=auto;html=1;exitX=0;exitY=0;exitDx=0;exitDy=0;endArrow=oval;endFill=1;" edge="1" parent="1" source="kP8dAD_jrm5b0dCdeW7q-5" target="Tgz7Qvu2k7bWYLfT2SAW-105">
          <mxGeometry relative="1" as="geometry" />
        </mxCell>
        <mxCell id="Tgz7Qvu2k7bWYLfT2SAW-113" style="rounded=0;orthogonalLoop=1;jettySize=auto;html=1;exitX=0.5;exitY=0;exitDx=0;exitDy=0;endArrow=oval;endFill=0;" edge="1" parent="1" source="kP8dAD_jrm5b0dCdeW7q-5" target="Tgz7Qvu2k7bWYLfT2SAW-107">
          <mxGeometry relative="1" as="geometry" />
        </mxCell>
        <mxCell id="Tgz7Qvu2k7bWYLfT2SAW-114" style="rounded=0;orthogonalLoop=1;jettySize=auto;html=1;exitX=0.633;exitY=-0.025;exitDx=0;exitDy=0;endArrow=oval;endFill=0;exitPerimeter=0;" edge="1" parent="1" source="kP8dAD_jrm5b0dCdeW7q-5" target="Tgz7Qvu2k7bWYLfT2SAW-108">
          <mxGeometry relative="1" as="geometry" />
        </mxCell>
        <mxCell id="8JAtajd1r-GjUV28Kf3z-34" style="edgeStyle=orthogonalEdgeStyle;rounded=0;orthogonalLoop=1;jettySize=auto;html=1;exitX=0.5;exitY=1;exitDx=0;exitDy=0;entryX=0.5;entryY=0;entryDx=0;entryDy=0;" edge="1" parent="1" source="kP8dAD_jrm5b0dCdeW7q-5" target="Tgz7Qvu2k7bWYLfT2SAW-8">
          <mxGeometry relative="1" as="geometry" />
        </mxCell>
        <mxCell id="8JAtajd1r-GjUV28Kf3z-35" style="edgeStyle=orthogonalEdgeStyle;rounded=0;orthogonalLoop=1;jettySize=auto;html=1;entryX=0.5;entryY=0;entryDx=0;entryDy=0;endArrow=none;startFill=0;" edge="1" parent="1" source="kP8dAD_jrm5b0dCdeW7q-5" target="8JAtajd1r-GjUV28Kf3z-32">
          <mxGeometry relative="1" as="geometry" />
        </mxCell>
        <mxCell id="kP8dAD_jrm5b0dCdeW7q-5" value="EMPRESA" style="rounded=0;whiteSpace=wrap;html=1;" vertex="1" parent="1">
          <mxGeometry x="684" y="235" width="120" height="60" as="geometry" />
        </mxCell>
        <mxCell id="8JAtajd1r-GjUV28Kf3z-18" style="rounded=0;orthogonalLoop=1;jettySize=auto;html=1;exitX=0.75;exitY=0;exitDx=0;exitDy=0;entryX=0.5;entryY=1.033;entryDx=0;entryDy=0;entryPerimeter=0;endArrow=oval;endFill=1;" edge="1" parent="1" source="kP8dAD_jrm5b0dCdeW7q-6" target="8JAtajd1r-GjUV28Kf3z-20">
          <mxGeometry relative="1" as="geometry">
            <mxPoint x="570" y="820" as="targetPoint" />
          </mxGeometry>
        </mxCell>
        <mxCell id="8JAtajd1r-GjUV28Kf3z-19" style="rounded=0;orthogonalLoop=1;jettySize=auto;html=1;exitX=1;exitY=0;exitDx=0;exitDy=0;entryX=0.556;entryY=0.933;entryDx=0;entryDy=0;entryPerimeter=0;endArrow=oval;endFill=0;" edge="1" parent="1" source="kP8dAD_jrm5b0dCdeW7q-6" target="8JAtajd1r-GjUV28Kf3z-21">
          <mxGeometry relative="1" as="geometry">
            <mxPoint x="610" y="820" as="targetPoint" />
          </mxGeometry>
        </mxCell>
        <mxCell id="kP8dAD_jrm5b0dCdeW7q-6" value="CONVENIO" style="rounded=0;whiteSpace=wrap;html=1;" vertex="1" parent="1">
          <mxGeometry x="464" y="890" width="120" height="60" as="geometry" />
        </mxCell>
        <mxCell id="Tgz7Qvu2k7bWYLfT2SAW-37" style="edgeStyle=orthogonalEdgeStyle;rounded=0;orthogonalLoop=1;jettySize=auto;html=1;entryX=0.5;entryY=0;entryDx=0;entryDy=0;endArrow=none;startFill=0;" edge="1" parent="1" source="kP8dAD_jrm5b0dCdeW7q-7" target="Tgz7Qvu2k7bWYLfT2SAW-31">
          <mxGeometry relative="1" as="geometry" />
        </mxCell>
        <mxCell id="Tgz7Qvu2k7bWYLfT2SAW-80" style="rounded=0;orthogonalLoop=1;jettySize=auto;html=1;exitX=1;exitY=0;exitDx=0;exitDy=0;endArrow=oval;endFill=1;entryX=0.167;entryY=0.825;entryDx=0;entryDy=0;entryPerimeter=0;" edge="1" parent="1" source="kP8dAD_jrm5b0dCdeW7q-7" target="Tgz7Qvu2k7bWYLfT2SAW-77">
          <mxGeometry relative="1" as="geometry" />
        </mxCell>
        <mxCell id="Tgz7Qvu2k7bWYLfT2SAW-81" style="rounded=0;orthogonalLoop=1;jettySize=auto;html=1;exitX=1;exitY=0.5;exitDx=0;exitDy=0;endArrow=oval;endFill=0;" edge="1" parent="1" source="kP8dAD_jrm5b0dCdeW7q-7" target="Tgz7Qvu2k7bWYLfT2SAW-78">
          <mxGeometry relative="1" as="geometry" />
        </mxCell>
        <mxCell id="Tgz7Qvu2k7bWYLfT2SAW-82" style="rounded=0;orthogonalLoop=1;jettySize=auto;html=1;exitX=1;exitY=1;exitDx=0;exitDy=0;endArrow=oval;endFill=0;" edge="1" parent="1" source="kP8dAD_jrm5b0dCdeW7q-7" target="Tgz7Qvu2k7bWYLfT2SAW-79">
          <mxGeometry relative="1" as="geometry" />
        </mxCell>
        <mxCell id="kP8dAD_jrm5b0dCdeW7q-7" value="CICLO FORMATIVO" style="rounded=0;whiteSpace=wrap;html=1;" vertex="1" parent="1">
          <mxGeometry x="24" y="250" width="120" height="60" as="geometry" />
        </mxCell>
        <mxCell id="Tgz7Qvu2k7bWYLfT2SAW-39" style="edgeStyle=orthogonalEdgeStyle;rounded=0;orthogonalLoop=1;jettySize=auto;html=1;entryX=0.5;entryY=0;entryDx=0;entryDy=0;endArrow=none;startFill=0;" edge="1" parent="1" source="kP8dAD_jrm5b0dCdeW7q-8" target="Tgz7Qvu2k7bWYLfT2SAW-33">
          <mxGeometry relative="1" as="geometry" />
        </mxCell>
        <mxCell id="8JAtajd1r-GjUV28Kf3z-9" style="rounded=0;orthogonalLoop=1;jettySize=auto;html=1;exitX=0;exitY=0.5;exitDx=0;exitDy=0;endArrow=oval;endFill=0;" edge="1" parent="1" source="kP8dAD_jrm5b0dCdeW7q-8" target="8JAtajd1r-GjUV28Kf3z-5">
          <mxGeometry relative="1" as="geometry" />
        </mxCell>
        <mxCell id="kP8dAD_jrm5b0dCdeW7q-8" value="CURSO" style="rounded=0;whiteSpace=wrap;html=1;" vertex="1" parent="1">
          <mxGeometry x="24" y="500" width="120" height="60" as="geometry" />
        </mxCell>
        <mxCell id="8JAtajd1r-GjUV28Kf3z-12" style="rounded=0;orthogonalLoop=1;jettySize=auto;html=1;exitX=1;exitY=0.25;exitDx=0;exitDy=0;endArrow=oval;endFill=1;" edge="1" parent="1" source="kP8dAD_jrm5b0dCdeW7q-10" target="8JAtajd1r-GjUV28Kf3z-11">
          <mxGeometry relative="1" as="geometry" />
        </mxCell>
        <mxCell id="jyFi_7OY-xpQh8csej5u-11" style="edgeStyle=orthogonalEdgeStyle;rounded=0;orthogonalLoop=1;jettySize=auto;html=1;exitX=1;exitY=0.75;exitDx=0;exitDy=0;" edge="1" parent="1" source="jyFi_7OY-xpQh8csej5u-13" target="kP8dAD_jrm5b0dCdeW7q-4">
          <mxGeometry relative="1" as="geometry">
            <Array as="points">
              <mxPoint x="160" y="1310" />
            </Array>
          </mxGeometry>
        </mxCell>
        <mxCell id="kP8dAD_jrm5b0dCdeW7q-10" value="TUTOR LABORAL" style="rounded=0;whiteSpace=wrap;html=1;" vertex="1" parent="1">
          <mxGeometry x="684" y="500" width="120" height="60" as="geometry" />
        </mxCell>
        <mxCell id="i2WU7JlJFQg8zrvrk9Qy-12" style="edgeStyle=orthogonalEdgeStyle;rounded=0;orthogonalLoop=1;jettySize=auto;html=1;exitX=1;exitY=0.75;exitDx=0;exitDy=0;entryX=0;entryY=0.5;entryDx=0;entryDy=0;" edge="1" parent="1" source="kP8dAD_jrm5b0dCdeW7q-11" target="i2WU7JlJFQg8zrvrk9Qy-11">
          <mxGeometry relative="1" as="geometry" />
        </mxCell>
        <mxCell id="i2WU7JlJFQg8zrvrk9Qy-34" style="edgeStyle=orthogonalEdgeStyle;rounded=0;orthogonalLoop=1;jettySize=auto;html=1;exitX=0.25;exitY=1;exitDx=0;exitDy=0;entryX=0.5;entryY=0;entryDx=0;entryDy=0;" edge="1" parent="1" source="kP8dAD_jrm5b0dCdeW7q-11" target="i2WU7JlJFQg8zrvrk9Qy-4">
          <mxGeometry relative="1" as="geometry" />
        </mxCell>
        <mxCell id="kP8dAD_jrm5b0dCdeW7q-11" value="ALUMNO" style="rounded=0;whiteSpace=wrap;html=1;" vertex="1" parent="1">
          <mxGeometry x="24" y="760" width="120" height="60" as="geometry" />
        </mxCell>
        <mxCell id="Tgz7Qvu2k7bWYLfT2SAW-27" style="edgeStyle=orthogonalEdgeStyle;rounded=0;orthogonalLoop=1;jettySize=auto;html=1;entryX=0.5;entryY=0;entryDx=0;entryDy=0;endArrow=none;startFill=0;" edge="1" parent="1" source="kP8dAD_jrm5b0dCdeW7q-13" target="Tgz7Qvu2k7bWYLfT2SAW-26">
          <mxGeometry relative="1" as="geometry" />
        </mxCell>
        <mxCell id="kP8dAD_jrm5b0dCdeW7q-13" value="TUTOR DOCENTE" style="rounded=0;whiteSpace=wrap;html=1;" vertex="1" parent="1">
          <mxGeometry x="353" y="500" width="120" height="60" as="geometry" />
        </mxCell>
        <mxCell id="Tgz7Qvu2k7bWYLfT2SAW-117" style="rounded=0;orthogonalLoop=1;jettySize=auto;html=1;exitX=1;exitY=0;exitDx=0;exitDy=0;entryX=0.3;entryY=1;entryDx=0;entryDy=0;entryPerimeter=0;endArrow=oval;endFill=1;" edge="1" parent="1" source="kP8dAD_jrm5b0dCdeW7q-26" target="Tgz7Qvu2k7bWYLfT2SAW-118">
          <mxGeometry relative="1" as="geometry">
            <mxPoint x="1086" y="465" as="targetPoint" />
          </mxGeometry>
        </mxCell>
        <mxCell id="kP8dAD_jrm5b0dCdeW7q-26" value="SEDE" style="whiteSpace=wrap;html=1;" vertex="1" parent="1">
          <mxGeometry x="910" y="500" width="120" height="60" as="geometry" />
        </mxCell>
        <mxCell id="Tgz7Qvu2k7bWYLfT2SAW-11" style="edgeStyle=orthogonalEdgeStyle;rounded=0;orthogonalLoop=1;jettySize=auto;html=1;entryX=0.5;entryY=0;entryDx=0;entryDy=0;" edge="1" parent="1" source="Tgz7Qvu2k7bWYLfT2SAW-8" target="kP8dAD_jrm5b0dCdeW7q-10">
          <mxGeometry relative="1" as="geometry" />
        </mxCell>
        <mxCell id="Tgz7Qvu2k7bWYLfT2SAW-8" value="pertenece" style="rhombus;whiteSpace=wrap;html=1;" vertex="1" parent="1">
          <mxGeometry x="704" y="360" width="80" height="80" as="geometry" />
        </mxCell>
        <mxCell id="Tgz7Qvu2k7bWYLfT2SAW-14" style="edgeStyle=orthogonalEdgeStyle;rounded=0;orthogonalLoop=1;jettySize=auto;html=1;entryX=1;entryY=0.5;entryDx=0;entryDy=0;" edge="1" parent="1" source="Tgz7Qvu2k7bWYLfT2SAW-12" target="kP8dAD_jrm5b0dCdeW7q-6">
          <mxGeometry relative="1" as="geometry" />
        </mxCell>
        <mxCell id="8JAtajd1r-GjUV28Kf3z-22" style="edgeStyle=orthogonalEdgeStyle;rounded=0;orthogonalLoop=1;jettySize=auto;html=1;exitX=0.5;exitY=0;exitDx=0;exitDy=0;endArrow=none;startFill=0;" edge="1" parent="1" source="Tgz7Qvu2k7bWYLfT2SAW-12" target="kP8dAD_jrm5b0dCdeW7q-10">
          <mxGeometry relative="1" as="geometry" />
        </mxCell>
        <mxCell id="Tgz7Qvu2k7bWYLfT2SAW-12" value="firma" style="rhombus;whiteSpace=wrap;html=1;" vertex="1" parent="1">
          <mxGeometry x="704" y="880" width="80" height="80" as="geometry" />
        </mxCell>
        <mxCell id="Tgz7Qvu2k7bWYLfT2SAW-59" style="edgeStyle=orthogonalEdgeStyle;rounded=0;orthogonalLoop=1;jettySize=auto;html=1;entryX=0.5;entryY=0;entryDx=0;entryDy=0;exitX=0.5;exitY=1;exitDx=0;exitDy=0;" edge="1" parent="1" source="Tgz7Qvu2k7bWYLfT2SAW-26" target="kP8dAD_jrm5b0dCdeW7q-6">
          <mxGeometry relative="1" as="geometry" />
        </mxCell>
        <mxCell id="Tgz7Qvu2k7bWYLfT2SAW-26" value="firma" style="rhombus;whiteSpace=wrap;html=1;" vertex="1" parent="1">
          <mxGeometry x="374" y="630" width="80" height="80" as="geometry" />
        </mxCell>
        <mxCell id="Tgz7Qvu2k7bWYLfT2SAW-35" style="edgeStyle=orthogonalEdgeStyle;rounded=0;orthogonalLoop=1;jettySize=auto;html=1;" edge="1" parent="1" source="Tgz7Qvu2k7bWYLfT2SAW-30" target="kP8dAD_jrm5b0dCdeW7q-7">
          <mxGeometry relative="1" as="geometry" />
        </mxCell>
        <mxCell id="Tgz7Qvu2k7bWYLfT2SAW-30" value="tiene" style="rhombus;whiteSpace=wrap;html=1;" vertex="1" parent="1">
          <mxGeometry x="44" y="120" width="80" height="80" as="geometry" />
        </mxCell>
        <mxCell id="Tgz7Qvu2k7bWYLfT2SAW-38" style="edgeStyle=orthogonalEdgeStyle;rounded=0;orthogonalLoop=1;jettySize=auto;html=1;entryX=0.5;entryY=0;entryDx=0;entryDy=0;" edge="1" parent="1" source="Tgz7Qvu2k7bWYLfT2SAW-31" target="kP8dAD_jrm5b0dCdeW7q-8">
          <mxGeometry relative="1" as="geometry" />
        </mxCell>
        <mxCell id="Tgz7Qvu2k7bWYLfT2SAW-31" value="tiene" style="rhombus;whiteSpace=wrap;html=1;" vertex="1" parent="1">
          <mxGeometry x="44" y="370" width="80" height="80" as="geometry" />
        </mxCell>
        <mxCell id="Tgz7Qvu2k7bWYLfT2SAW-40" style="edgeStyle=orthogonalEdgeStyle;rounded=0;orthogonalLoop=1;jettySize=auto;html=1;entryX=0.5;entryY=0;entryDx=0;entryDy=0;" edge="1" parent="1" source="Tgz7Qvu2k7bWYLfT2SAW-33" target="kP8dAD_jrm5b0dCdeW7q-11">
          <mxGeometry relative="1" as="geometry" />
        </mxCell>
        <mxCell id="Tgz7Qvu2k7bWYLfT2SAW-33" value="tiene" style="rhombus;whiteSpace=wrap;html=1;" vertex="1" parent="1">
          <mxGeometry x="44" y="620" width="80" height="80" as="geometry" />
        </mxCell>
        <mxCell id="Tgz7Qvu2k7bWYLfT2SAW-65" value="id" style="text;html=1;align=center;verticalAlign=middle;resizable=0;points=[];autosize=1;strokeColor=none;fillColor=none;" vertex="1" parent="1">
          <mxGeometry x="-30" y="-50" width="30" height="30" as="geometry" />
        </mxCell>
        <mxCell id="Tgz7Qvu2k7bWYLfT2SAW-67" value="nombre" style="text;html=1;align=center;verticalAlign=middle;resizable=0;points=[];autosize=1;strokeColor=none;fillColor=none;" vertex="1" parent="1">
          <mxGeometry y="-50" width="60" height="30" as="geometry" />
        </mxCell>
        <mxCell id="Tgz7Qvu2k7bWYLfT2SAW-69" value="direccion" style="text;html=1;align=center;verticalAlign=middle;resizable=0;points=[];autosize=1;strokeColor=none;fillColor=none;" vertex="1" parent="1">
          <mxGeometry x="144" y="-50" width="70" height="30" as="geometry" />
        </mxCell>
        <mxCell id="Tgz7Qvu2k7bWYLfT2SAW-70" value="localidad" style="text;html=1;align=center;verticalAlign=middle;resizable=0;points=[];autosize=1;strokeColor=none;fillColor=none;" vertex="1" parent="1">
          <mxGeometry x="90" y="-50" width="70" height="30" as="geometry" />
        </mxCell>
        <mxCell id="Tgz7Qvu2k7bWYLfT2SAW-72" style="rounded=0;orthogonalLoop=1;jettySize=auto;html=1;exitX=0.25;exitY=0;exitDx=0;exitDy=0;entryX=0.517;entryY=0.95;entryDx=0;entryDy=0;entryPerimeter=0;endArrow=oval;endFill=0;" edge="1" parent="1" source="kP8dAD_jrm5b0dCdeW7q-1" target="Tgz7Qvu2k7bWYLfT2SAW-67">
          <mxGeometry relative="1" as="geometry" />
        </mxCell>
        <mxCell id="Tgz7Qvu2k7bWYLfT2SAW-73" style="rounded=0;orthogonalLoop=1;jettySize=auto;html=1;exitX=0.75;exitY=0;exitDx=0;exitDy=0;entryX=0.514;entryY=1.075;entryDx=0;entryDy=0;entryPerimeter=0;endArrow=oval;endFill=0;" edge="1" parent="1" source="kP8dAD_jrm5b0dCdeW7q-1" target="Tgz7Qvu2k7bWYLfT2SAW-70">
          <mxGeometry relative="1" as="geometry" />
        </mxCell>
        <mxCell id="Tgz7Qvu2k7bWYLfT2SAW-74" style="rounded=0;orthogonalLoop=1;jettySize=auto;html=1;exitX=1;exitY=0;exitDx=0;exitDy=0;entryX=0.425;entryY=1.033;entryDx=0;entryDy=0;entryPerimeter=0;endArrow=oval;endFill=0;" edge="1" parent="1" source="kP8dAD_jrm5b0dCdeW7q-1" target="Tgz7Qvu2k7bWYLfT2SAW-69">
          <mxGeometry relative="1" as="geometry" />
        </mxCell>
        <mxCell id="Tgz7Qvu2k7bWYLfT2SAW-75" value="email" style="text;html=1;align=center;verticalAlign=middle;resizable=0;points=[];autosize=1;strokeColor=none;fillColor=none;" vertex="1" parent="1">
          <mxGeometry x="50" y="-50" width="50" height="30" as="geometry" />
        </mxCell>
        <mxCell id="Tgz7Qvu2k7bWYLfT2SAW-76" style="rounded=0;orthogonalLoop=1;jettySize=auto;html=1;exitX=0.5;exitY=0;exitDx=0;exitDy=0;entryX=0.5;entryY=0.908;entryDx=0;entryDy=0;entryPerimeter=0;endArrow=oval;endFill=0;" edge="1" parent="1" source="kP8dAD_jrm5b0dCdeW7q-1" target="Tgz7Qvu2k7bWYLfT2SAW-75">
          <mxGeometry relative="1" as="geometry" />
        </mxCell>
        <mxCell id="Tgz7Qvu2k7bWYLfT2SAW-77" value="id" style="text;html=1;align=center;verticalAlign=middle;resizable=0;points=[];autosize=1;strokeColor=none;fillColor=none;" vertex="1" parent="1">
          <mxGeometry x="160" y="210" width="30" height="30" as="geometry" />
        </mxCell>
        <mxCell id="Tgz7Qvu2k7bWYLfT2SAW-78" value="nombre" style="text;html=1;align=center;verticalAlign=middle;resizable=0;points=[];autosize=1;strokeColor=none;fillColor=none;" vertex="1" parent="1">
          <mxGeometry x="185" y="210" width="60" height="30" as="geometry" />
        </mxCell>
        <mxCell id="Tgz7Qvu2k7bWYLfT2SAW-79" value="nivel" style="text;html=1;align=center;verticalAlign=middle;resizable=0;points=[];autosize=1;strokeColor=none;fillColor=none;" vertex="1" parent="1">
          <mxGeometry x="234" y="210" width="50" height="30" as="geometry" />
        </mxCell>
        <mxCell id="2BAsR_BSLu4NLGfuRWQs-3" style="edgeStyle=orthogonalEdgeStyle;rounded=0;orthogonalLoop=1;jettySize=auto;html=1;endArrow=none;startFill=0;" edge="1" parent="1" source="2BAsR_BSLu4NLGfuRWQs-1" target="2BAsR_BSLu4NLGfuRWQs-2">
          <mxGeometry relative="1" as="geometry" />
        </mxCell>
        <mxCell id="Tgz7Qvu2k7bWYLfT2SAW-92" style="rounded=0;orthogonalLoop=1;jettySize=auto;html=1;exitX=0.25;exitY=0;exitDx=0;exitDy=0;endArrow=oval;endFill=0;" edge="1" parent="1" source="2BAsR_BSLu4NLGfuRWQs-1" target="Tgz7Qvu2k7bWYLfT2SAW-84">
          <mxGeometry relative="1" as="geometry" />
        </mxCell>
        <mxCell id="2BAsR_BSLu4NLGfuRWQs-1" value="PERSONA" style="rounded=0;whiteSpace=wrap;html=1;" vertex="1" parent="1">
          <mxGeometry x="353" y="215" width="120" height="60" as="geometry" />
        </mxCell>
        <mxCell id="2BAsR_BSLu4NLGfuRWQs-4" style="edgeStyle=orthogonalEdgeStyle;rounded=0;orthogonalLoop=1;jettySize=auto;html=1;exitX=0.5;exitY=1;exitDx=0;exitDy=0;endArrow=none;startFill=0;" edge="1" parent="1" source="2BAsR_BSLu4NLGfuRWQs-2" target="kP8dAD_jrm5b0dCdeW7q-11">
          <mxGeometry relative="1" as="geometry">
            <Array as="points">
              <mxPoint x="210" y="350" />
              <mxPoint x="210" y="780" />
            </Array>
          </mxGeometry>
        </mxCell>
        <mxCell id="2BAsR_BSLu4NLGfuRWQs-6" style="edgeStyle=orthogonalEdgeStyle;rounded=0;orthogonalLoop=1;jettySize=auto;html=1;endArrow=none;startFill=0;" edge="1" parent="1" source="2BAsR_BSLu4NLGfuRWQs-2" target="kP8dAD_jrm5b0dCdeW7q-10">
          <mxGeometry relative="1" as="geometry">
            <Array as="points">
              <mxPoint x="620" y="350" />
              <mxPoint x="620" y="530" />
            </Array>
          </mxGeometry>
        </mxCell>
        <mxCell id="8JAtajd1r-GjUV28Kf3z-17" style="edgeStyle=orthogonalEdgeStyle;rounded=0;orthogonalLoop=1;jettySize=auto;html=1;entryX=0.5;entryY=0;entryDx=0;entryDy=0;endArrow=none;startFill=0;" edge="1" parent="1" source="2BAsR_BSLu4NLGfuRWQs-2" target="kP8dAD_jrm5b0dCdeW7q-13">
          <mxGeometry relative="1" as="geometry" />
        </mxCell>
        <mxCell id="2BAsR_BSLu4NLGfuRWQs-2" value="" style="triangle;whiteSpace=wrap;html=1;rotation=90;" vertex="1" parent="1">
          <mxGeometry x="383" y="310" width="60" height="80" as="geometry" />
        </mxCell>
        <mxCell id="2BAsR_BSLu4NLGfuRWQs-7" value="&lt;b&gt;N:M&lt;/b&gt;" style="text;html=1;align=center;verticalAlign=middle;whiteSpace=wrap;rounded=0;" vertex="1" parent="1">
          <mxGeometry y="145" width="60" height="30" as="geometry" />
        </mxCell>
        <mxCell id="Tgz7Qvu2k7bWYLfT2SAW-83" value="id" style="text;html=1;align=center;verticalAlign=middle;resizable=0;points=[];autosize=1;strokeColor=none;fillColor=none;" vertex="1" parent="1">
          <mxGeometry x="218" y="145" width="30" height="30" as="geometry" />
        </mxCell>
        <mxCell id="Tgz7Qvu2k7bWYLfT2SAW-84" value="nombre" style="text;html=1;align=center;verticalAlign=middle;resizable=0;points=[];autosize=1;strokeColor=none;fillColor=none;" vertex="1" parent="1">
          <mxGeometry x="248" y="145" width="60" height="30" as="geometry" />
        </mxCell>
        <mxCell id="2BAsR_BSLu4NLGfuRWQs-8" value="(0, n)" style="text;html=1;align=center;verticalAlign=middle;whiteSpace=wrap;rounded=0;" vertex="1" parent="1">
          <mxGeometry x="30" y="224" width="60" height="30" as="geometry" />
        </mxCell>
        <mxCell id="Tgz7Qvu2k7bWYLfT2SAW-87" value="fecha_nacimento" style="text;html=1;align=center;verticalAlign=middle;resizable=0;points=[];autosize=1;strokeColor=none;fillColor=none;" vertex="1" parent="1">
          <mxGeometry x="414" y="145" width="110" height="30" as="geometry" />
        </mxCell>
        <mxCell id="Tgz7Qvu2k7bWYLfT2SAW-85" value="apellidos" style="text;html=1;align=center;verticalAlign=middle;resizable=0;points=[];autosize=1;strokeColor=none;fillColor=none;" vertex="1" parent="1">
          <mxGeometry x="304" y="145" width="70" height="30" as="geometry" />
        </mxCell>
        <mxCell id="Tgz7Qvu2k7bWYLfT2SAW-88" value="dni" style="text;html=1;align=center;verticalAlign=middle;resizable=0;points=[];autosize=1;strokeColor=none;fillColor=none;" vertex="1" parent="1">
          <mxGeometry x="514" y="145" width="40" height="30" as="geometry" />
        </mxCell>
        <mxCell id="Tgz7Qvu2k7bWYLfT2SAW-89" value="telefono" style="text;html=1;align=center;verticalAlign=middle;resizable=0;points=[];autosize=1;strokeColor=none;fillColor=none;" vertex="1" parent="1">
          <mxGeometry x="357" y="145" width="70" height="30" as="geometry" />
        </mxCell>
        <mxCell id="Tgz7Qvu2k7bWYLfT2SAW-90" value="direccion" style="text;html=1;align=center;verticalAlign=middle;resizable=0;points=[];autosize=1;strokeColor=none;fillColor=none;" vertex="1" parent="1">
          <mxGeometry x="539" y="145" width="70" height="30" as="geometry" />
        </mxCell>
        <mxCell id="Tgz7Qvu2k7bWYLfT2SAW-91" style="rounded=0;orthogonalLoop=1;jettySize=auto;html=1;exitX=0;exitY=0;exitDx=0;exitDy=0;endArrow=oval;endFill=1;" edge="1" parent="1" source="2BAsR_BSLu4NLGfuRWQs-1" target="Tgz7Qvu2k7bWYLfT2SAW-83">
          <mxGeometry relative="1" as="geometry" />
        </mxCell>
        <mxCell id="Tgz7Qvu2k7bWYLfT2SAW-93" style="rounded=0;orthogonalLoop=1;jettySize=auto;html=1;exitX=0.5;exitY=0;exitDx=0;exitDy=0;entryX=0.586;entryY=0.933;entryDx=0;entryDy=0;entryPerimeter=0;endArrow=oval;endFill=0;" edge="1" parent="1" source="2BAsR_BSLu4NLGfuRWQs-1" target="Tgz7Qvu2k7bWYLfT2SAW-85">
          <mxGeometry relative="1" as="geometry" />
        </mxCell>
        <mxCell id="Tgz7Qvu2k7bWYLfT2SAW-94" style="rounded=0;orthogonalLoop=1;jettySize=auto;html=1;exitX=0.75;exitY=0;exitDx=0;exitDy=0;entryX=0.42;entryY=0.892;entryDx=0;entryDy=0;entryPerimeter=0;endArrow=oval;endFill=0;" edge="1" parent="1" source="2BAsR_BSLu4NLGfuRWQs-1" target="Tgz7Qvu2k7bWYLfT2SAW-87">
          <mxGeometry relative="1" as="geometry" />
        </mxCell>
        <mxCell id="Tgz7Qvu2k7bWYLfT2SAW-95" style="rounded=0;orthogonalLoop=1;jettySize=auto;html=1;exitX=0.871;exitY=-0.004;exitDx=0;exitDy=0;entryX=0.444;entryY=1.058;entryDx=0;entryDy=0;entryPerimeter=0;endArrow=oval;endFill=0;exitPerimeter=0;" edge="1" parent="1" source="2BAsR_BSLu4NLGfuRWQs-1" target="Tgz7Qvu2k7bWYLfT2SAW-88">
          <mxGeometry relative="1" as="geometry" />
        </mxCell>
        <mxCell id="Tgz7Qvu2k7bWYLfT2SAW-96" style="rounded=0;orthogonalLoop=1;jettySize=auto;html=1;exitX=0.6;exitY=-0.025;exitDx=0;exitDy=0;entryX=0.482;entryY=0.975;entryDx=0;entryDy=0;entryPerimeter=0;endArrow=oval;endFill=0;exitPerimeter=0;" edge="1" parent="1" source="2BAsR_BSLu4NLGfuRWQs-1" target="Tgz7Qvu2k7bWYLfT2SAW-89">
          <mxGeometry relative="1" as="geometry" />
        </mxCell>
        <mxCell id="Tgz7Qvu2k7bWYLfT2SAW-98" style="rounded=0;orthogonalLoop=1;jettySize=auto;html=1;exitX=1;exitY=0;exitDx=0;exitDy=0;entryX=0.411;entryY=1.1;entryDx=0;entryDy=0;entryPerimeter=0;endArrow=oval;endFill=0;" edge="1" parent="1" source="2BAsR_BSLu4NLGfuRWQs-1" target="Tgz7Qvu2k7bWYLfT2SAW-90">
          <mxGeometry relative="1" as="geometry" />
        </mxCell>
        <mxCell id="2BAsR_BSLu4NLGfuRWQs-9" value="(1 , n)" style="text;html=1;align=center;verticalAlign=middle;whiteSpace=wrap;rounded=0;" vertex="1" parent="1">
          <mxGeometry x="33" y="66" width="60" height="30" as="geometry" />
        </mxCell>
        <mxCell id="2BAsR_BSLu4NLGfuRWQs-11" style="rounded=0;orthogonalLoop=1;jettySize=auto;html=1;endArrow=none;startFill=0;startArrow=oval;" edge="1" parent="1" source="2BAsR_BSLu4NLGfuRWQs-10" target="Tgz7Qvu2k7bWYLfT2SAW-30">
          <mxGeometry relative="1" as="geometry" />
        </mxCell>
        <mxCell id="2BAsR_BSLu4NLGfuRWQs-10" value="implantacion" style="text;html=1;align=center;verticalAlign=middle;resizable=0;points=[];autosize=1;strokeColor=none;fillColor=none;" vertex="1" parent="1">
          <mxGeometry x="93" y="96" width="90" height="30" as="geometry" />
        </mxCell>
        <mxCell id="2BAsR_BSLu4NLGfuRWQs-12" value="&lt;b&gt;1:N&lt;/b&gt;" style="text;html=1;align=center;verticalAlign=middle;whiteSpace=wrap;rounded=0;" vertex="1" parent="1">
          <mxGeometry y="395" width="60" height="30" as="geometry" />
        </mxCell>
        <mxCell id="2BAsR_BSLu4NLGfuRWQs-13" value="(0 , n)" style="text;html=1;align=center;verticalAlign=middle;whiteSpace=wrap;rounded=0;" vertex="1" parent="1">
          <mxGeometry x="33" y="308" width="60" height="30" as="geometry" />
        </mxCell>
        <mxCell id="2BAsR_BSLu4NLGfuRWQs-14" value="(0 , 1)" style="text;html=1;align=center;verticalAlign=middle;whiteSpace=wrap;rounded=0;" vertex="1" parent="1">
          <mxGeometry x="30" y="470" width="60" height="30" as="geometry" />
        </mxCell>
        <mxCell id="Tgz7Qvu2k7bWYLfT2SAW-105" value="id" style="text;html=1;align=center;verticalAlign=middle;resizable=0;points=[];autosize=1;strokeColor=none;fillColor=none;" vertex="1" parent="1">
          <mxGeometry x="609" y="175" width="30" height="30" as="geometry" />
        </mxCell>
        <mxCell id="2BAsR_BSLu4NLGfuRWQs-15" value="&lt;b&gt;1:N&lt;/b&gt;" style="text;html=1;align=center;verticalAlign=middle;whiteSpace=wrap;rounded=0;" vertex="1" parent="1">
          <mxGeometry y="645" width="60" height="30" as="geometry" />
        </mxCell>
        <mxCell id="Tgz7Qvu2k7bWYLfT2SAW-106" value="nombre" style="text;html=1;align=center;verticalAlign=middle;resizable=0;points=[];autosize=1;strokeColor=none;fillColor=none;" vertex="1" parent="1">
          <mxGeometry x="639" y="175" width="60" height="30" as="geometry" />
        </mxCell>
        <mxCell id="Tgz7Qvu2k7bWYLfT2SAW-107" value="cif" style="text;html=1;align=center;verticalAlign=middle;resizable=0;points=[];autosize=1;strokeColor=none;fillColor=none;" vertex="1" parent="1">
          <mxGeometry x="689" y="175" width="40" height="30" as="geometry" />
        </mxCell>
        <mxCell id="Tgz7Qvu2k7bWYLfT2SAW-108" value="email" style="text;html=1;align=center;verticalAlign=middle;resizable=0;points=[];autosize=1;strokeColor=none;fillColor=none;" vertex="1" parent="1">
          <mxGeometry x="715" y="175" width="50" height="30" as="geometry" />
        </mxCell>
        <mxCell id="Tgz7Qvu2k7bWYLfT2SAW-109" value="telefono" style="text;html=1;align=center;verticalAlign=middle;resizable=0;points=[];autosize=1;strokeColor=none;fillColor=none;" vertex="1" parent="1">
          <mxGeometry x="753" y="175" width="70" height="30" as="geometry" />
        </mxCell>
        <mxCell id="Tgz7Qvu2k7bWYLfT2SAW-110" value="direccion" style="text;html=1;align=center;verticalAlign=middle;resizable=0;points=[];autosize=1;strokeColor=none;fillColor=none;" vertex="1" parent="1">
          <mxGeometry x="809" y="175" width="70" height="30" as="geometry" />
        </mxCell>
        <mxCell id="2BAsR_BSLu4NLGfuRWQs-17" value="(0 , n)" style="text;html=1;align=center;verticalAlign=middle;whiteSpace=wrap;rounded=0;" vertex="1" parent="1">
          <mxGeometry x="24" y="730" width="60" height="30" as="geometry" />
        </mxCell>
        <mxCell id="2BAsR_BSLu4NLGfuRWQs-16" value="(1 , 1)" style="text;html=1;align=center;verticalAlign=middle;whiteSpace=wrap;rounded=0;" vertex="1" parent="1">
          <mxGeometry x="33" y="555" width="60" height="30" as="geometry" />
        </mxCell>
        <mxCell id="Tgz7Qvu2k7bWYLfT2SAW-116" style="rounded=0;orthogonalLoop=1;jettySize=auto;html=1;exitX=1;exitY=0;exitDx=0;exitDy=0;entryX=0.532;entryY=1.075;entryDx=0;entryDy=0;entryPerimeter=0;endArrow=oval;endFill=0;" edge="1" parent="1" source="kP8dAD_jrm5b0dCdeW7q-5" target="Tgz7Qvu2k7bWYLfT2SAW-110">
          <mxGeometry relative="1" as="geometry" />
        </mxCell>
        <mxCell id="Tgz7Qvu2k7bWYLfT2SAW-112" style="rounded=0;orthogonalLoop=1;jettySize=auto;html=1;exitX=0.25;exitY=0;exitDx=0;exitDy=0;entryX=0.704;entryY=0.867;entryDx=0;entryDy=0;entryPerimeter=0;endArrow=oval;endFill=0;" edge="1" parent="1" source="kP8dAD_jrm5b0dCdeW7q-5" target="Tgz7Qvu2k7bWYLfT2SAW-106">
          <mxGeometry relative="1" as="geometry" />
        </mxCell>
        <mxCell id="Tgz7Qvu2k7bWYLfT2SAW-115" style="rounded=0;orthogonalLoop=1;jettySize=auto;html=1;exitX=0.862;exitY=-0.025;exitDx=0;exitDy=0;entryX=0.582;entryY=0.908;entryDx=0;entryDy=0;entryPerimeter=0;endArrow=oval;endFill=0;exitPerimeter=0;" edge="1" parent="1" source="kP8dAD_jrm5b0dCdeW7q-5" target="Tgz7Qvu2k7bWYLfT2SAW-109">
          <mxGeometry relative="1" as="geometry" />
        </mxCell>
        <mxCell id="Tgz7Qvu2k7bWYLfT2SAW-118" value="id" style="text;html=1;align=center;verticalAlign=middle;resizable=0;points=[];autosize=1;strokeColor=none;fillColor=none;" vertex="1" parent="1">
          <mxGeometry x="1055" y="455" width="30" height="30" as="geometry" />
        </mxCell>
        <mxCell id="Tgz7Qvu2k7bWYLfT2SAW-119" value="localidad" style="text;html=1;align=center;verticalAlign=middle;resizable=0;points=[];autosize=1;strokeColor=none;fillColor=none;" vertex="1" parent="1">
          <mxGeometry x="1085" y="469" width="70" height="30" as="geometry" />
        </mxCell>
        <mxCell id="Tgz7Qvu2k7bWYLfT2SAW-120" value="direccion" style="text;html=1;align=center;verticalAlign=middle;resizable=0;points=[];autosize=1;strokeColor=none;fillColor=none;" vertex="1" parent="1">
          <mxGeometry x="1116" y="495" width="70" height="30" as="geometry" />
        </mxCell>
        <mxCell id="8JAtajd1r-GjUV28Kf3z-1" style="rounded=0;orthogonalLoop=1;jettySize=auto;html=1;exitX=1;exitY=0.5;exitDx=0;exitDy=0;endArrow=oval;endFill=0;entryX=0.4;entryY=0.967;entryDx=0;entryDy=0;entryPerimeter=0;" edge="1" parent="1" source="kP8dAD_jrm5b0dCdeW7q-26" target="Tgz7Qvu2k7bWYLfT2SAW-119">
          <mxGeometry relative="1" as="geometry">
            <mxPoint x="1096" y="505" as="targetPoint" />
          </mxGeometry>
        </mxCell>
        <mxCell id="8JAtajd1r-GjUV28Kf3z-2" style="rounded=0;orthogonalLoop=1;jettySize=auto;html=1;exitX=1;exitY=1;exitDx=0;exitDy=0;endArrow=oval;endFill=0;entryX=0.257;entryY=1.033;entryDx=0;entryDy=0;entryPerimeter=0;" edge="1" parent="1" source="kP8dAD_jrm5b0dCdeW7q-26" target="Tgz7Qvu2k7bWYLfT2SAW-120">
          <mxGeometry relative="1" as="geometry">
            <mxPoint x="1086" y="555" as="targetPoint" />
          </mxGeometry>
        </mxCell>
        <mxCell id="8JAtajd1r-GjUV28Kf3z-3" value="id" style="text;html=1;align=center;verticalAlign=middle;resizable=0;points=[];autosize=1;strokeColor=none;fillColor=none;" vertex="1" parent="1">
          <mxGeometry x="-60" y="480" width="30" height="30" as="geometry" />
        </mxCell>
        <mxCell id="8JAtajd1r-GjUV28Kf3z-5" value="nombre" style="text;html=1;align=center;verticalAlign=middle;resizable=0;points=[];autosize=1;strokeColor=none;fillColor=none;" vertex="1" parent="1">
          <mxGeometry x="-90" y="515" width="60" height="30" as="geometry" />
        </mxCell>
        <mxCell id="8JAtajd1r-GjUV28Kf3z-6" value="anyo_academico" style="text;html=1;align=center;verticalAlign=middle;resizable=0;points=[];autosize=1;strokeColor=none;fillColor=none;" vertex="1" parent="1">
          <mxGeometry x="-140" y="545" width="110" height="30" as="geometry" />
        </mxCell>
        <mxCell id="8JAtajd1r-GjUV28Kf3z-8" style="rounded=0;orthogonalLoop=1;jettySize=auto;html=1;exitX=0;exitY=0;exitDx=0;exitDy=0;entryX=1.033;entryY=0.6;entryDx=0;entryDy=0;entryPerimeter=0;endArrow=oval;endFill=1;" edge="1" parent="1" source="kP8dAD_jrm5b0dCdeW7q-8" target="8JAtajd1r-GjUV28Kf3z-3">
          <mxGeometry relative="1" as="geometry" />
        </mxCell>
        <mxCell id="8JAtajd1r-GjUV28Kf3z-10" style="rounded=0;orthogonalLoop=1;jettySize=auto;html=1;exitX=0;exitY=1;exitDx=0;exitDy=0;entryX=1;entryY=0.667;entryDx=0;entryDy=0;entryPerimeter=0;endArrow=oval;endFill=0;" edge="1" parent="1" source="kP8dAD_jrm5b0dCdeW7q-8" target="8JAtajd1r-GjUV28Kf3z-6">
          <mxGeometry relative="1" as="geometry" />
        </mxCell>
        <mxCell id="8JAtajd1r-GjUV28Kf3z-11" value="id" style="text;html=1;align=center;verticalAlign=middle;resizable=0;points=[];autosize=1;strokeColor=none;fillColor=none;" vertex="1" parent="1">
          <mxGeometry x="844" y="480" width="30" height="30" as="geometry" />
        </mxCell>
        <mxCell id="8JAtajd1r-GjUV28Kf3z-13" value="id" style="text;html=1;align=center;verticalAlign=middle;resizable=0;points=[];autosize=1;strokeColor=none;fillColor=none;" vertex="1" parent="1">
          <mxGeometry x="-50" y="765" width="30" height="30" as="geometry" />
        </mxCell>
        <mxCell id="8JAtajd1r-GjUV28Kf3z-14" style="rounded=0;orthogonalLoop=1;jettySize=auto;html=1;exitX=0;exitY=0.5;exitDx=0;exitDy=0;entryX=1.067;entryY=0.6;entryDx=0;entryDy=0;entryPerimeter=0;endArrow=oval;endFill=1;" edge="1" parent="1" source="kP8dAD_jrm5b0dCdeW7q-11" target="8JAtajd1r-GjUV28Kf3z-13">
          <mxGeometry relative="1" as="geometry" />
        </mxCell>
        <mxCell id="8JAtajd1r-GjUV28Kf3z-15" value="id" style="text;html=1;align=center;verticalAlign=middle;resizable=0;points=[];autosize=1;strokeColor=none;fillColor=none;" vertex="1" parent="1">
          <mxGeometry x="514" y="500" width="30" height="30" as="geometry" />
        </mxCell>
        <mxCell id="8JAtajd1r-GjUV28Kf3z-16" style="rounded=0;orthogonalLoop=1;jettySize=auto;html=1;exitX=1;exitY=0.5;exitDx=0;exitDy=0;entryX=0;entryY=0.5;entryDx=0;entryDy=0;entryPerimeter=0;endArrow=oval;endFill=1;" edge="1" parent="1" source="kP8dAD_jrm5b0dCdeW7q-13" target="8JAtajd1r-GjUV28Kf3z-15">
          <mxGeometry relative="1" as="geometry" />
        </mxCell>
        <mxCell id="PihBVYOYtar03Roq_LLk-1" value="&lt;b&gt;1:N&lt;/b&gt;" style="text;html=1;align=center;verticalAlign=middle;whiteSpace=wrap;rounded=0;" vertex="1" parent="1">
          <mxGeometry x="770" y="395" width="60" height="30" as="geometry" />
        </mxCell>
        <mxCell id="PihBVYOYtar03Roq_LLk-3" value="(0 , n)" style="text;html=1;align=center;verticalAlign=middle;whiteSpace=wrap;rounded=0;" vertex="1" parent="1">
          <mxGeometry x="740" y="470" width="60" height="30" as="geometry" />
        </mxCell>
        <mxCell id="PihBVYOYtar03Roq_LLk-4" value="&lt;b&gt;1:N&lt;/b&gt;" style="text;html=1;align=center;verticalAlign=middle;whiteSpace=wrap;rounded=0;" vertex="1" parent="1">
          <mxGeometry x="784" y="905" width="60" height="30" as="geometry" />
        </mxCell>
        <mxCell id="PihBVYOYtar03Roq_LLk-5" value="(1 , 1)" style="text;html=1;align=center;verticalAlign=middle;whiteSpace=wrap;rounded=0;" vertex="1" parent="1">
          <mxGeometry x="689" y="560" width="60" height="30" as="geometry" />
        </mxCell>
        <mxCell id="8JAtajd1r-GjUV28Kf3z-20" value="id" style="text;html=1;align=center;verticalAlign=middle;resizable=0;points=[];autosize=1;strokeColor=none;fillColor=none;" vertex="1" parent="1">
          <mxGeometry x="579" y="830" width="30" height="30" as="geometry" />
        </mxCell>
        <mxCell id="PihBVYOYtar03Roq_LLk-8" value="(0, n)" style="text;html=1;align=center;verticalAlign=middle;whiteSpace=wrap;rounded=0;" vertex="1" parent="1">
          <mxGeometry x="464" y="860" width="60" height="30" as="geometry" />
        </mxCell>
        <mxCell id="8JAtajd1r-GjUV28Kf3z-21" value="fecha_firma" style="text;html=1;align=center;verticalAlign=middle;resizable=0;points=[];autosize=1;strokeColor=none;fillColor=none;" vertex="1" parent="1">
          <mxGeometry x="599" y="830" width="90" height="30" as="geometry" />
        </mxCell>
        <mxCell id="PihBVYOYtar03Roq_LLk-9" value="(1, 1)" style="text;html=1;align=center;verticalAlign=middle;whiteSpace=wrap;rounded=0;" vertex="1" parent="1">
          <mxGeometry x="414" y="560" width="60" height="30" as="geometry" />
        </mxCell>
        <mxCell id="PihBVYOYtar03Roq_LLk-6" value="(0, n)" style="text;html=1;align=center;verticalAlign=middle;whiteSpace=wrap;rounded=0;" vertex="1" parent="1">
          <mxGeometry x="579" y="890" width="60" height="30" as="geometry" />
        </mxCell>
        <mxCell id="PihBVYOYtar03Roq_LLk-7" value="&lt;b&gt;1:N&lt;/b&gt;" style="text;html=1;align=center;verticalAlign=middle;whiteSpace=wrap;rounded=0;" vertex="1" parent="1">
          <mxGeometry x="315" y="655" width="60" height="30" as="geometry" />
        </mxCell>
        <mxCell id="PihBVYOYtar03Roq_LLk-14" value="(0 , n)" style="text;html=1;align=center;verticalAlign=middle;whiteSpace=wrap;rounded=0;" vertex="1" parent="1">
          <mxGeometry x="214" y="1180" width="60" height="30" as="geometry" />
        </mxCell>
        <mxCell id="8JAtajd1r-GjUV28Kf3z-36" style="edgeStyle=orthogonalEdgeStyle;rounded=0;orthogonalLoop=1;jettySize=auto;html=1;entryX=0.5;entryY=0;entryDx=0;entryDy=0;" edge="1" parent="1" source="8JAtajd1r-GjUV28Kf3z-32" target="kP8dAD_jrm5b0dCdeW7q-26">
          <mxGeometry relative="1" as="geometry" />
        </mxCell>
        <mxCell id="8JAtajd1r-GjUV28Kf3z-32" value="tiene" style="rhombus;whiteSpace=wrap;html=1;" vertex="1" parent="1">
          <mxGeometry x="930" y="360" width="80" height="80" as="geometry" />
        </mxCell>
        <mxCell id="8JAtajd1r-GjUV28Kf3z-40" style="edgeStyle=orthogonalEdgeStyle;rounded=0;orthogonalLoop=1;jettySize=auto;html=1;exitX=0.5;exitY=0;exitDx=0;exitDy=0;entryX=0.5;entryY=1;entryDx=0;entryDy=0;endArrow=none;startFill=0;" edge="1" parent="1" source="8JAtajd1r-GjUV28Kf3z-39" target="kP8dAD_jrm5b0dCdeW7q-26">
          <mxGeometry relative="1" as="geometry" />
        </mxCell>
        <mxCell id="i2WU7JlJFQg8zrvrk9Qy-43" style="edgeStyle=orthogonalEdgeStyle;rounded=0;orthogonalLoop=1;jettySize=auto;html=1;entryX=1;entryY=0.5;entryDx=0;entryDy=0;" edge="1" parent="1" source="8JAtajd1r-GjUV28Kf3z-39" target="kP8dAD_jrm5b0dCdeW7q-3">
          <mxGeometry relative="1" as="geometry">
            <Array as="points">
              <mxPoint x="970" y="1378" />
            </Array>
          </mxGeometry>
        </mxCell>
        <mxCell id="8JAtajd1r-GjUV28Kf3z-39" value="tiene" style="rhombus;whiteSpace=wrap;html=1;" vertex="1" parent="1">
          <mxGeometry x="930" y="720" width="80" height="80" as="geometry" />
        </mxCell>
        <mxCell id="i2WU7JlJFQg8zrvrk9Qy-9" style="edgeStyle=orthogonalEdgeStyle;rounded=0;orthogonalLoop=1;jettySize=auto;html=1;exitX=0.5;exitY=1;exitDx=0;exitDy=0;entryX=0.5;entryY=0;entryDx=0;entryDy=0;startArrow=classic;startFill=1;endArrow=none;" edge="1" parent="1" source="8JAtajd1r-GjUV28Kf3z-41" target="i2WU7JlJFQg8zrvrk9Qy-5">
          <mxGeometry relative="1" as="geometry" />
        </mxCell>
        <mxCell id="i2WU7JlJFQg8zrvrk9Qy-58" style="rounded=0;orthogonalLoop=1;jettySize=auto;html=1;exitX=0;exitY=0;exitDx=0;exitDy=0;endArrow=oval;endFill=1;" edge="1" parent="1" source="8JAtajd1r-GjUV28Kf3z-41" target="i2WU7JlJFQg8zrvrk9Qy-44">
          <mxGeometry relative="1" as="geometry" />
        </mxCell>
        <mxCell id="i2WU7JlJFQg8zrvrk9Qy-59" style="rounded=0;orthogonalLoop=1;jettySize=auto;html=1;exitX=0;exitY=0.25;exitDx=0;exitDy=0;endArrow=oval;endFill=0;" edge="1" parent="1" source="8JAtajd1r-GjUV28Kf3z-41" target="i2WU7JlJFQg8zrvrk9Qy-52">
          <mxGeometry relative="1" as="geometry" />
        </mxCell>
        <mxCell id="i2WU7JlJFQg8zrvrk9Qy-60" style="rounded=0;orthogonalLoop=1;jettySize=auto;html=1;exitX=0;exitY=0.75;exitDx=0;exitDy=0;endArrow=oval;endFill=0;" edge="1" parent="1" source="8JAtajd1r-GjUV28Kf3z-41" target="i2WU7JlJFQg8zrvrk9Qy-53">
          <mxGeometry relative="1" as="geometry" />
        </mxCell>
        <mxCell id="8JAtajd1r-GjUV28Kf3z-41" value="JORNADA" style="whiteSpace=wrap;html=1;" vertex="1" parent="1">
          <mxGeometry x="-210" y="1120" width="120" height="60" as="geometry" />
        </mxCell>
        <mxCell id="i2WU7JlJFQg8zrvrk9Qy-8" style="edgeStyle=orthogonalEdgeStyle;rounded=0;orthogonalLoop=1;jettySize=auto;html=1;exitX=0.5;exitY=1;exitDx=0;exitDy=0;entryX=0.5;entryY=0;entryDx=0;entryDy=0;" edge="1" parent="1" source="i2WU7JlJFQg8zrvrk9Qy-4" target="8JAtajd1r-GjUV28Kf3z-41">
          <mxGeometry relative="1" as="geometry" />
        </mxCell>
        <mxCell id="i2WU7JlJFQg8zrvrk9Qy-4" value="realiza" style="rhombus;whiteSpace=wrap;html=1;" vertex="1" parent="1">
          <mxGeometry x="-190" y="950" width="80" height="80" as="geometry" />
        </mxCell>
        <mxCell id="i2WU7JlJFQg8zrvrk9Qy-10" style="edgeStyle=orthogonalEdgeStyle;rounded=0;orthogonalLoop=1;jettySize=auto;html=1;exitX=0.5;exitY=1;exitDx=0;exitDy=0;entryX=0.5;entryY=0;entryDx=0;entryDy=0;endArrow=none;startFill=0;" edge="1" parent="1" source="i2WU7JlJFQg8zrvrk9Qy-5" target="kP8dAD_jrm5b0dCdeW7q-3">
          <mxGeometry relative="1" as="geometry" />
        </mxCell>
        <mxCell id="i2WU7JlJFQg8zrvrk9Qy-5" value="tiene" style="rhombus;whiteSpace=wrap;html=1;" vertex="1" parent="1">
          <mxGeometry x="-190" y="1220" width="80" height="80" as="geometry" />
        </mxCell>
        <mxCell id="i2WU7JlJFQg8zrvrk9Qy-13" style="edgeStyle=orthogonalEdgeStyle;rounded=0;orthogonalLoop=1;jettySize=auto;html=1;exitX=1;exitY=0.5;exitDx=0;exitDy=0;entryX=0;entryY=0.5;entryDx=0;entryDy=0;" edge="1" parent="1" source="i2WU7JlJFQg8zrvrk9Qy-11" target="kP8dAD_jrm5b0dCdeW7q-6">
          <mxGeometry relative="1" as="geometry" />
        </mxCell>
        <mxCell id="i2WU7JlJFQg8zrvrk9Qy-11" value="tiene" style="rhombus;whiteSpace=wrap;html=1;" vertex="1" parent="1">
          <mxGeometry x="273" y="880" width="80" height="80" as="geometry" />
        </mxCell>
        <mxCell id="i2WU7JlJFQg8zrvrk9Qy-14" value="id" style="text;html=1;align=center;verticalAlign=middle;resizable=0;points=[];autosize=1;strokeColor=none;fillColor=none;" vertex="1" parent="1">
          <mxGeometry x="655" y="1038" width="30" height="30" as="geometry" />
        </mxCell>
        <mxCell id="i2WU7JlJFQg8zrvrk9Qy-16" value="nombre" style="text;html=1;align=center;verticalAlign=middle;resizable=0;points=[];autosize=1;strokeColor=none;fillColor=none;" vertex="1" parent="1">
          <mxGeometry x="655" y="1064" width="60" height="30" as="geometry" />
        </mxCell>
        <mxCell id="i2WU7JlJFQg8zrvrk9Qy-18" value="descripcion" style="text;html=1;align=center;verticalAlign=middle;resizable=0;points=[];autosize=1;strokeColor=none;fillColor=none;" vertex="1" parent="1">
          <mxGeometry x="659" y="1094" width="80" height="30" as="geometry" />
        </mxCell>
        <mxCell id="jyFi_7OY-xpQh8csej5u-1" value="&lt;b&gt;1:N&lt;/b&gt;" style="text;html=1;align=center;verticalAlign=middle;whiteSpace=wrap;rounded=0;" vertex="1" parent="1">
          <mxGeometry x="-250" y="975" width="60" height="30" as="geometry" />
        </mxCell>
        <mxCell id="jyFi_7OY-xpQh8csej5u-2" value="(1 , 1)" style="text;html=1;align=center;verticalAlign=middle;whiteSpace=wrap;rounded=0;" vertex="1" parent="1">
          <mxGeometry y="820" width="60" height="30" as="geometry" />
        </mxCell>
        <mxCell id="i2WU7JlJFQg8zrvrk9Qy-22" value="id" style="text;html=1;align=center;verticalAlign=middle;resizable=0;points=[];autosize=1;strokeColor=none;fillColor=none;" vertex="1" parent="1">
          <mxGeometry x="131" y="1130" width="30" height="30" as="geometry" />
        </mxCell>
        <mxCell id="jyFi_7OY-xpQh8csej5u-3" value="(0 , n)" style="text;html=1;align=center;verticalAlign=middle;whiteSpace=wrap;rounded=0;" vertex="1" parent="1">
          <mxGeometry x="-201" y="1090" width="60" height="30" as="geometry" />
        </mxCell>
        <mxCell id="i2WU7JlJFQg8zrvrk9Qy-23" value="nota" style="text;html=1;align=center;verticalAlign=middle;resizable=0;points=[];autosize=1;strokeColor=none;fillColor=none;" vertex="1" parent="1">
          <mxGeometry x="242" y="1130" width="50" height="30" as="geometry" />
        </mxCell>
        <mxCell id="i2WU7JlJFQg8zrvrk9Qy-25" value="comentario" style="text;html=1;align=center;verticalAlign=middle;resizable=0;points=[];autosize=1;strokeColor=none;fillColor=none;" vertex="1" parent="1">
          <mxGeometry x="162" y="1130" width="80" height="30" as="geometry" />
        </mxCell>
        <mxCell id="i2WU7JlJFQg8zrvrk9Qy-26" style="rounded=0;orthogonalLoop=1;jettySize=auto;html=1;exitX=0.25;exitY=0;exitDx=0;exitDy=0;entryX=0.438;entryY=1;entryDx=0;entryDy=0;entryPerimeter=0;endArrow=oval;endFill=1;" edge="1" parent="1" source="kP8dAD_jrm5b0dCdeW7q-4" target="i2WU7JlJFQg8zrvrk9Qy-22">
          <mxGeometry relative="1" as="geometry" />
        </mxCell>
        <mxCell id="i2WU7JlJFQg8zrvrk9Qy-27" style="rounded=0;orthogonalLoop=1;jettySize=auto;html=1;exitX=0.5;exitY=0;exitDx=0;exitDy=0;entryX=0.33;entryY=0.952;entryDx=0;entryDy=0;entryPerimeter=0;endArrow=oval;endFill=0;" edge="1" parent="1" source="kP8dAD_jrm5b0dCdeW7q-4" target="i2WU7JlJFQg8zrvrk9Qy-25">
          <mxGeometry relative="1" as="geometry" />
        </mxCell>
        <mxCell id="i2WU7JlJFQg8zrvrk9Qy-29" style="rounded=0;orthogonalLoop=1;jettySize=auto;html=1;exitX=0.75;exitY=0;exitDx=0;exitDy=0;entryX=0.271;entryY=0.857;entryDx=0;entryDy=0;entryPerimeter=0;endArrow=oval;endFill=0;" edge="1" parent="1" source="kP8dAD_jrm5b0dCdeW7q-4" target="i2WU7JlJFQg8zrvrk9Qy-23">
          <mxGeometry relative="1" as="geometry" />
        </mxCell>
        <mxCell id="jyFi_7OY-xpQh8csej5u-5" value="&lt;span&gt;1:N&lt;/span&gt;" style="text;html=1;align=center;verticalAlign=middle;whiteSpace=wrap;rounded=0;fontStyle=1" vertex="1" parent="1">
          <mxGeometry x="-240" y="1245" width="60" height="30" as="geometry" />
        </mxCell>
        <mxCell id="jyFi_7OY-xpQh8csej5u-6" value="(1 , 1)" style="text;html=1;align=center;verticalAlign=middle;whiteSpace=wrap;rounded=0;" vertex="1" parent="1">
          <mxGeometry x="-201" y="1318" width="60" height="30" as="geometry" />
        </mxCell>
        <mxCell id="jyFi_7OY-xpQh8csej5u-7" value="(0 , n)" style="text;html=1;align=center;verticalAlign=middle;whiteSpace=wrap;rounded=0;" vertex="1" parent="1">
          <mxGeometry x="-204" y="1180" width="60" height="30" as="geometry" />
        </mxCell>
        <mxCell id="jyFi_7OY-xpQh8csej5u-8" value="&lt;b&gt;N:M&lt;/b&gt;" style="text;html=1;align=center;verticalAlign=middle;whiteSpace=wrap;rounded=0;" vertex="1" parent="1">
          <mxGeometry x="283" y="960" width="60" height="30" as="geometry" />
        </mxCell>
        <mxCell id="jyFi_7OY-xpQh8csej5u-9" value="(1, n)" style="text;html=1;align=center;verticalAlign=middle;whiteSpace=wrap;rounded=0;" vertex="1" parent="1">
          <mxGeometry x="144" y="810" width="60" height="30" as="geometry" />
        </mxCell>
        <mxCell id="jyFi_7OY-xpQh8csej5u-10" value="(0, n)" style="text;html=1;align=center;verticalAlign=middle;whiteSpace=wrap;rounded=0;" vertex="1" parent="1">
          <mxGeometry x="404" y="920" width="60" height="30" as="geometry" />
        </mxCell>
        <mxCell id="jyFi_7OY-xpQh8csej5u-12" value="" style="edgeStyle=orthogonalEdgeStyle;rounded=0;orthogonalLoop=1;jettySize=auto;html=1;exitX=1;exitY=0.5;exitDx=0;exitDy=0;endArrow=none;startFill=0;" edge="1" parent="1" source="kP8dAD_jrm5b0dCdeW7q-10" target="jyFi_7OY-xpQh8csej5u-13">
          <mxGeometry relative="1" as="geometry">
            <mxPoint x="804" y="545" as="sourcePoint" />
            <mxPoint x="160" y="1240" as="targetPoint" />
            <Array as="points">
              <mxPoint x="880" y="530" />
              <mxPoint x="880" y="1310" />
            </Array>
          </mxGeometry>
        </mxCell>
        <mxCell id="jyFi_7OY-xpQh8csej5u-13" value="realiza" style="rhombus;whiteSpace=wrap;html=1;" vertex="1" parent="1">
          <mxGeometry x="649" y="1268" width="80" height="80" as="geometry" />
        </mxCell>
        <mxCell id="jyFi_7OY-xpQh8csej5u-15" value="" style="edgeStyle=orthogonalEdgeStyle;rounded=0;orthogonalLoop=1;jettySize=auto;html=1;endArrow=none;startFill=0;" edge="1" parent="1" source="kP8dAD_jrm5b0dCdeW7q-2" target="jyFi_7OY-xpQh8csej5u-16">
          <mxGeometry relative="1" as="geometry">
            <mxPoint x="489" y="1160" as="sourcePoint" />
            <mxPoint x="220" y="1210" as="targetPoint" />
            <Array as="points">
              <mxPoint x="569" y="1210" />
            </Array>
          </mxGeometry>
        </mxCell>
        <mxCell id="i2WU7JlJFQg8zrvrk9Qy-39" style="edgeStyle=orthogonalEdgeStyle;rounded=0;orthogonalLoop=1;jettySize=auto;html=1;exitX=0.75;exitY=1;exitDx=0;exitDy=0;entryX=0.5;entryY=0;entryDx=0;entryDy=0;" edge="1" parent="1" source="kP8dAD_jrm5b0dCdeW7q-11" target="i2WU7JlJFQg8zrvrk9Qy-40">
          <mxGeometry relative="1" as="geometry">
            <mxPoint x="114.23999999999978" y="980" as="targetPoint" />
            <Array as="points">
              <mxPoint x="114" y="950" />
              <mxPoint x="40" y="950" />
            </Array>
          </mxGeometry>
        </mxCell>
        <mxCell id="i2WU7JlJFQg8zrvrk9Qy-42" style="edgeStyle=orthogonalEdgeStyle;rounded=0;orthogonalLoop=1;jettySize=auto;html=1;exitX=0.5;exitY=1;exitDx=0;exitDy=0;entryX=0;entryY=0.5;entryDx=0;entryDy=0;" edge="1" parent="1" source="i2WU7JlJFQg8zrvrk9Qy-40" target="kP8dAD_jrm5b0dCdeW7q-4">
          <mxGeometry relative="1" as="geometry">
            <mxPoint x="40.11764705882342" y="1220" as="targetPoint" />
          </mxGeometry>
        </mxCell>
        <mxCell id="i2WU7JlJFQg8zrvrk9Qy-40" value="recibe" style="rhombus;whiteSpace=wrap;html=1;" vertex="1" parent="1">
          <mxGeometry y="1013" width="80" height="80" as="geometry" />
        </mxCell>
        <mxCell id="jyFi_7OY-xpQh8csej5u-16" value="contiene" style="rhombus;whiteSpace=wrap;html=1;" vertex="1" parent="1">
          <mxGeometry x="352" y="1170" width="80" height="80" as="geometry" />
        </mxCell>
        <mxCell id="jyFi_7OY-xpQh8csej5u-17" value="&lt;b&gt;1:1&lt;/b&gt;" style="text;html=1;align=center;verticalAlign=middle;whiteSpace=wrap;rounded=0;" vertex="1" parent="1">
          <mxGeometry x="995" y="745" width="60" height="30" as="geometry" />
        </mxCell>
        <mxCell id="jyFi_7OY-xpQh8csej5u-18" value="(1, 1)" style="text;html=1;align=center;verticalAlign=middle;whiteSpace=wrap;rounded=0;" vertex="1" parent="1">
          <mxGeometry x="970" y="560" width="60" height="30" as="geometry" />
        </mxCell>
        <mxCell id="jyFi_7OY-xpQh8csej5u-19" value="(0, 1)" style="text;html=1;align=center;verticalAlign=middle;whiteSpace=wrap;rounded=0;" vertex="1" parent="1">
          <mxGeometry x="-100" y="1378" width="60" height="30" as="geometry" />
        </mxCell>
        <mxCell id="jyFi_7OY-xpQh8csej5u-20" value="&lt;b&gt;1:N&lt;/b&gt;" style="text;html=1;align=center;verticalAlign=middle;whiteSpace=wrap;rounded=0;" vertex="1" parent="1">
          <mxGeometry x="1010" y="385" width="60" height="30" as="geometry" />
        </mxCell>
        <mxCell id="jyFi_7OY-xpQh8csej5u-21" value="(0, n)" style="text;html=1;align=center;verticalAlign=middle;whiteSpace=wrap;rounded=0;" vertex="1" parent="1">
          <mxGeometry x="910" y="470" width="60" height="30" as="geometry" />
        </mxCell>
        <mxCell id="jyFi_7OY-xpQh8csej5u-22" value="(1, 1&lt;span style=&quot;background-color: transparent; color: light-dark(rgb(0, 0, 0), rgb(255, 255, 255));&quot;&gt;)&lt;/span&gt;" style="text;html=1;align=center;verticalAlign=middle;whiteSpace=wrap;rounded=0;" vertex="1" parent="1">
          <mxGeometry x="804" y="265" width="60" height="30" as="geometry" />
        </mxCell>
        <mxCell id="jyFi_7OY-xpQh8csej5u-23" value="&lt;b&gt;1:N&lt;/b&gt;" style="text;html=1;align=center;verticalAlign=middle;whiteSpace=wrap;rounded=0;" vertex="1" parent="1">
          <mxGeometry x="659" y="1238" width="60" height="30" as="geometry" />
        </mxCell>
        <mxCell id="jyFi_7OY-xpQh8csej5u-26" value="(0, n)" style="text;html=1;align=center;verticalAlign=middle;whiteSpace=wrap;rounded=0;" vertex="1" parent="1">
          <mxGeometry x="162" y="1245" width="60" height="30" as="geometry" />
        </mxCell>
        <mxCell id="jyFi_7OY-xpQh8csej5u-27" value="(1, 1)" style="text;html=1;align=center;verticalAlign=middle;whiteSpace=wrap;rounded=0;" vertex="1" parent="1">
          <mxGeometry x="800" y="530" width="60" height="30" as="geometry" />
        </mxCell>
        <mxCell id="jyFi_7OY-xpQh8csej5u-29" value="&lt;b&gt;1:N&lt;/b&gt;" style="text;html=1;align=center;verticalAlign=middle;whiteSpace=wrap;rounded=0;" vertex="1" parent="1">
          <mxGeometry x="362" y="1140" width="60" height="30" as="geometry" />
        </mxCell>
        <mxCell id="jyFi_7OY-xpQh8csej5u-30" value="(1 , 1)" style="text;html=1;align=center;verticalAlign=middle;whiteSpace=wrap;rounded=0;" vertex="1" parent="1">
          <mxGeometry x="510" y="1131" width="60" height="30" as="geometry" />
        </mxCell>
        <mxCell id="jyFi_7OY-xpQh8csej5u-31" value="&lt;b&gt;1:N&lt;/b&gt;" style="text;html=1;align=center;verticalAlign=middle;whiteSpace=wrap;rounded=0;" vertex="1" parent="1">
          <mxGeometry x="-50" y="1040" width="60" height="30" as="geometry" />
        </mxCell>
        <mxCell id="jyFi_7OY-xpQh8csej5u-32" value="(1, 1)" style="text;html=1;align=center;verticalAlign=middle;whiteSpace=wrap;rounded=0;" vertex="1" parent="1">
          <mxGeometry x="62" y="816" width="60" height="30" as="geometry" />
        </mxCell>
        <mxCell id="jyFi_7OY-xpQh8csej5u-33" value="(0, n)" style="text;html=1;align=center;verticalAlign=middle;whiteSpace=wrap;rounded=0;" vertex="1" parent="1">
          <mxGeometry x="46" y="1211" width="60" height="30" as="geometry" />
        </mxCell>
        <mxCell id="i2WU7JlJFQg8zrvrk9Qy-44" value="id" style="text;html=1;align=center;verticalAlign=middle;resizable=0;points=[];autosize=1;strokeColor=none;fillColor=none;" vertex="1" parent="1">
          <mxGeometry x="-305" y="1090" width="30" height="30" as="geometry" />
        </mxCell>
        <mxCell id="i2WU7JlJFQg8zrvrk9Qy-46" value="anyo" style="text;html=1;align=center;verticalAlign=middle;resizable=0;points=[];autosize=1;strokeColor=none;fillColor=none;" vertex="1" parent="1">
          <mxGeometry x="-290" y="1393" width="50" height="30" as="geometry" />
        </mxCell>
        <mxCell id="i2WU7JlJFQg8zrvrk9Qy-48" value="dia" style="text;html=1;align=center;verticalAlign=middle;resizable=0;points=[];autosize=1;strokeColor=none;fillColor=none;" vertex="1" parent="1">
          <mxGeometry x="-285" y="1333" width="40" height="30" as="geometry" />
        </mxCell>
        <mxCell id="i2WU7JlJFQg8zrvrk9Qy-50" value="mes" style="text;html=1;align=center;verticalAlign=middle;resizable=0;points=[];autosize=1;strokeColor=none;fillColor=none;" vertex="1" parent="1">
          <mxGeometry x="-290" y="1363" width="50" height="30" as="geometry" />
        </mxCell>
        <mxCell id="i2WU7JlJFQg8zrvrk9Qy-52" value="hora_inicio" style="text;html=1;align=center;verticalAlign=middle;resizable=0;points=[];autosize=1;strokeColor=none;fillColor=none;" vertex="1" parent="1">
          <mxGeometry x="-340" y="1110" width="80" height="30" as="geometry" />
        </mxCell>
        <mxCell id="i2WU7JlJFQg8zrvrk9Qy-53" value="hora_fin" style="text;html=1;align=center;verticalAlign=middle;resizable=0;points=[];autosize=1;strokeColor=none;fillColor=none;" vertex="1" parent="1">
          <mxGeometry x="-325" y="1140" width="70" height="30" as="geometry" />
        </mxCell>
        <mxCell id="i2WU7JlJFQg8zrvrk9Qy-64" style="rounded=0;orthogonalLoop=1;jettySize=auto;html=1;exitX=0;exitY=0;exitDx=0;exitDy=0;entryX=0.981;entryY=0.529;entryDx=0;entryDy=0;entryPerimeter=0;endArrow=oval;endFill=1;" edge="1" parent="1" source="kP8dAD_jrm5b0dCdeW7q-3" target="i2WU7JlJFQg8zrvrk9Qy-48">
          <mxGeometry relative="1" as="geometry" />
        </mxCell>
      </root>
    </mxGraphModel>
  </diagram>
  <diagram name="Copia de PÃ¡gina-1" id="lL3TdRorRy-ZfXAFsa3S">
    <mxGraphModel grid="1" page="1" gridSize="10" guides="1" tooltips="1" connect="1" arrows="1" fold="1" pageScale="1" pageWidth="827" pageHeight="1169" math="0" shadow="0">
      <root>
        <mxCell id="H3uRiH5p5HeUKeEIZBCA-0" />
        <mxCell id="H3uRiH5p5HeUKeEIZBCA-1" parent="H3uRiH5p5HeUKeEIZBCA-0" />
        <mxCell id="H3uRiH5p5HeUKeEIZBCA-2" value="INSTITUTO" style="rounded=0;whiteSpace=wrap;html=1;" vertex="1" parent="H3uRiH5p5HeUKeEIZBCA-1">
          <mxGeometry x="430" y="270" width="120" height="60" as="geometry" />
        </mxCell>
        <mxCell id="H3uRiH5p5HeUKeEIZBCA-3" value="ACTIVIDAD FORMATIVA" style="rounded=0;whiteSpace=wrap;html=1;" vertex="1" parent="H3uRiH5p5HeUKeEIZBCA-1">
          <mxGeometry x="580" y="580" width="120" height="60" as="geometry" />
        </mxCell>
        <mxCell id="H3uRiH5p5HeUKeEIZBCA-4" value="CALENDARIO" style="rounded=0;whiteSpace=wrap;html=1;" vertex="1" parent="H3uRiH5p5HeUKeEIZBCA-1">
          <mxGeometry x="820" y="490" width="120" height="60" as="geometry" />
        </mxCell>
        <mxCell id="H3uRiH5p5HeUKeEIZBCA-5" value="VALORACION" style="rounded=0;whiteSpace=wrap;html=1;" vertex="1" parent="H3uRiH5p5HeUKeEIZBCA-1">
          <mxGeometry x="580" y="670" width="120" height="60" as="geometry" />
        </mxCell>
        <mxCell id="H3uRiH5p5HeUKeEIZBCA-6" value="EMPRESA" style="rounded=0;whiteSpace=wrap;html=1;" vertex="1" parent="H3uRiH5p5HeUKeEIZBCA-1">
          <mxGeometry x="780" y="60" width="120" height="60" as="geometry" />
        </mxCell>
        <mxCell id="H3uRiH5p5HeUKeEIZBCA-7" value="CONVENIO" style="rounded=0;whiteSpace=wrap;html=1;" vertex="1" parent="H3uRiH5p5HeUKeEIZBCA-1">
          <mxGeometry x="580" y="490" width="120" height="60" as="geometry" />
        </mxCell>
        <mxCell id="H3uRiH5p5HeUKeEIZBCA-8" value="CICLO FORMATIVO" style="rounded=0;whiteSpace=wrap;html=1;" vertex="1" parent="H3uRiH5p5HeUKeEIZBCA-1">
          <mxGeometry x="250" y="390" width="120" height="60" as="geometry" />
        </mxCell>
        <mxCell id="H3uRiH5p5HeUKeEIZBCA-9" value="CURSO" style="rounded=0;whiteSpace=wrap;html=1;" vertex="1" parent="H3uRiH5p5HeUKeEIZBCA-1">
          <mxGeometry x="250" y="480" width="120" height="60" as="geometry" />
        </mxCell>
        <mxCell id="H3uRiH5p5HeUKeEIZBCA-10" value="TUTOR LABORAL" style="rounded=0;whiteSpace=wrap;html=1;" vertex="1" parent="H3uRiH5p5HeUKeEIZBCA-1">
          <mxGeometry x="720" y="180" width="120" height="60" as="geometry" />
        </mxCell>
        <mxCell id="H3uRiH5p5HeUKeEIZBCA-11" value="ALUMNO" style="rounded=0;whiteSpace=wrap;html=1;" vertex="1" parent="H3uRiH5p5HeUKeEIZBCA-1">
          <mxGeometry x="230" y="180" width="120" height="60" as="geometry" />
        </mxCell>
        <mxCell id="H3uRiH5p5HeUKeEIZBCA-12" style="edgeStyle=orthogonalEdgeStyle;rounded=0;orthogonalLoop=1;jettySize=auto;html=1;entryX=0.5;entryY=0;entryDx=0;entryDy=0;" edge="1" parent="H3uRiH5p5HeUKeEIZBCA-1" source="H3uRiH5p5HeUKeEIZBCA-13" target="H3uRiH5p5HeUKeEIZBCA-16">
          <mxGeometry relative="1" as="geometry" />
        </mxCell>
        <mxCell id="H3uRiH5p5HeUKeEIZBCA-13" value="PROFESOR" style="rounded=0;whiteSpace=wrap;html=1;" vertex="1" parent="H3uRiH5p5HeUKeEIZBCA-1">
          <mxGeometry x="560" y="180" width="120" height="60" as="geometry" />
        </mxCell>
        <mxCell id="H3uRiH5p5HeUKeEIZBCA-14" value="TUTOR DOCENTE" style="rounded=0;whiteSpace=wrap;html=1;" vertex="1" parent="H3uRiH5p5HeUKeEIZBCA-1">
          <mxGeometry x="460" y="400" width="120" height="60" as="geometry" />
        </mxCell>
        <mxCell id="H3uRiH5p5HeUKeEIZBCA-15" value="SEDE" style="whiteSpace=wrap;html=1;" vertex="1" parent="H3uRiH5p5HeUKeEIZBCA-1">
          <mxGeometry x="880" y="180" width="120" height="60" as="geometry" />
        </mxCell>
        <mxCell id="H3uRiH5p5HeUKeEIZBCA-16" value="" style="rhombus;whiteSpace=wrap;html=1;" vertex="1" parent="H3uRiH5p5HeUKeEIZBCA-1">
          <mxGeometry x="580" y="280" width="80" height="80" as="geometry" />
        </mxCell>
      </root>
    </mxGraphModel>
  </diagram>
</mxfile>
